<svg xmlns="http://www.w3.org/2000/svg" version="1.1" width="3300" height="2000"><g id="Notes"><style>
    text {
      font-family: monospace;
      text-anchor: middle;
    }
    text.emphasis {
      font-weight:bold;
    }
    text.lanchor {
      text-anchor: start;
    }
  </style><rect height="2200" id="artboard" fill="white" width="3300" x="0" y="0"/><line id="" style="fill:none;stroke:black;stroke-width:0.5;" x1="263" x2="3036" y1="292" y2="292"/><text class="lanchor emphasis" transform="matrix(1 0 0 1 263 322)">Weight/Scale Variations</text><text transform="matrix(1 0 0 1 559.711 322)">Ultralight</text><text transform="matrix(1 0 0 1 856.422 322)">Thin</text><text transform="matrix(1 0 0 1 1153.13 322)">Light</text><text transform="matrix(1 0 0 1 1449.84 322)">Regular</text><text transform="matrix(1 0 0 1 1746.56 322)">Medium</text><text transform="matrix(1 0 0 1 2043.27 322)">Semibold</text><text transform="matrix(1 0 0 1 2339.98 322)">Bold</text><text transform="matrix(1 0 0 1 2636.69 322)">Heavy</text><text transform="matrix(1 0 0 1 2933.4 322)">Black</text><text id="template-version" style="text-anchor: end;" transform="matrix(1 0 0 1 3036 1933)">Template v.1.0</text><text class="lanchor" transform="matrix(1 0 0 1 263 726)">Small</text><text class="lanchor" transform="matrix(1 0 0 1 263 1156)">Medium</text><text class="lanchor" transform="matrix(1 0 0 1 263 1586)">Large</text></g><g id="Guides"><g id="H-reference" style="fill:#27AAE1;stroke:none;" transform="matrix(1 0 0 1 339 696)"><path d="M 54.9316 0 L 57.666 0 L 30.5664 -70.459 L 28.0762 -70.459 L 0.976562 0 L 3.66211 0 L 12.9395 -24.4629 L 45.7031 -24.4629 Z M 29.1992 -67.0898 L 29.4434 -67.0898 L 44.8242 -26.709 L 13.8184 -26.709 Z"/></g><line id="Baseline-S" style="fill:none;stroke:#27AAE1;opacity:1;stroke-width:0.577;" x1="263" x2="3036" y1="696" y2="696"/><line id="Capline-S" style="fill:none;stroke:#27AAE1;opacity:1;stroke-width:0.577;" x1="263" x2="3036" y1="625.541" y2="625.541"/><g id="H-reference" style="fill:#27AAE1;stroke:none;" transform="matrix(1 0 0 1 339 1126)"><path d="M 54.9316 0 L 57.666 0 L 30.5664 -70.459 L 28.0762 -70.459 L 0.976562 0 L 3.66211 0 L 12.9395 -24.4629 L 45.7031 -24.4629 Z M 29.1992 -67.0898 L 29.4434 -67.0898 L 44.8242 -26.709 L 13.8184 -26.709 Z"/></g><line id="Baseline-M" style="fill:none;stroke:#27AAE1;opacity:1;stroke-width:0.577;" x1="263" x2="3036" y1="1126" y2="1126"/><line id="Capline-M" style="fill:none;stroke:#27AAE1;opacity:1;stroke-width:0.577;" x1="263" x2="3036" y1="1055.54" y2="1055.54"/><g id="H-reference" style="fill:#27AAE1;stroke:none;" transform="matrix(1 0 0 1 339 1556)"><path d="M 54.9316 0 L 57.666 0 L 30.5664 -70.459 L 28.0762 -70.459 L 0.976562 0 L 3.66211 0 L 12.9395 -24.4629 L 45.7031 -24.4629 Z M 29.1992 -67.0898 L 29.4434 -67.0898 L 44.8242 -26.709 L 13.8184 -26.709 Z"/></g><line id="Baseline-L" style="fill:none;stroke:#27AAE1;opacity:1;stroke-width:0.577;" x1="263" x2="3036" y1="1556" y2="1556"/><line id="Capline-L" style="fill:none;stroke:#27AAE1;opacity:1;stroke-width:0.577;" x1="263" x2="3036" y1="1485.54" y2="1485.54"/><rect height="119.336" id="left-margin" style="fill:darkred;stroke:none;opacity:0.4;" width="12.4512" x="1394.06" y="1030.79"/><rect height="119.336" id="right-margin" style="fill:darkgreen;stroke:none;opacity:0.4;" width="12.4512" x="1502.5112" y="1030.79"/><rect x="1406.5112" y="1045" width="96" height="96" fill="none" stroke="blue" stroke-dasharray="5"/><rect x="1394.06" y="1030.79" width="120.9024" height="119.336" fill="none" stroke="blue"/></g><g id="Symbols"><g id="Bold-L" transform="matrix(1 0 0 1 2266 1556)"><path d="M61.598 12.984 V-2.174 H139.643 V12.984 H61.598 Z M61.598 -27.651 V-42.809 H139.643 V-27.651 H61.598 Z M61.598 -68.447 V-83.605 H139.643 V-68.447 H61.598 Z M28.77 18.789 Q23.212 18.789 19.265 14.956 Q15.319 11.123 15.319 5.447 Q15.319 -0.077 19.227 -4.028 Q23.136 -7.979 28.767 -7.979 Q34.399 -7.979 38.161 -3.986 Q41.925 0.006 41.925 5.611 Q41.925 11.086 38.061 14.936 Q34.196 18.789 28.77 18.789 Z M28.77 -21.846 Q23.212 -21.846 19.265 -25.761 Q15.319 -29.678 15.319 -35.275 Q15.319 -40.874 19.303 -44.744 Q23.289 -48.614 28.848 -48.614 Q34.274 -48.614 38.1 -44.699 Q41.925 -40.782 41.925 -35.185 Q41.925 -29.586 38.061 -25.716 Q34.196 -21.846 28.77 -21.846 Z M19.189 -66.558 Q15.319 -70.474 15.319 -76.071 Q15.319 -81.67 19.202 -85.54 Q23.083 -89.41 28.635 -89.41 Q34.185 -89.41 38.055 -85.495 Q41.925 -81.578 41.925 -75.981 Q41.925 -70.382 38.042 -66.512 Q34.161 -62.642 28.609 -62.642 Q23.059 -62.642 19.189 -66.558 Z"/></g><g id="Semibold-L" transform="matrix(1 0 0 1 1970.27 1556)"><path d="M61.248 11.792 V-0.982 H137.82 V11.792 H61.248 Z M61.248 -28.843 V-41.617 H137.82 V-28.843 H61.248 Z M61.248 -69.639 V-82.413 H137.82 V-69.639 H61.248 Z M29.512 17.666 Q24.404 17.666 20.772 14.169 Q17.141 10.67 17.141 5.463 Q17.141 0.343 20.717 -3.257 Q24.294 -6.856 29.475 -6.856 Q34.656 -6.856 38.116 -3.201 Q41.575 0.456 41.575 5.592 Q41.575 10.594 38.031 14.13 Q34.488 17.666 29.512 17.666 Z M29.512 -22.969 Q24.404 -22.969 20.772 -26.548 Q17.141 -30.128 17.141 -35.256 Q17.141 -40.384 20.795 -43.937 Q24.447 -47.491 29.556 -47.491 Q34.532 -47.491 38.053 -43.912 Q41.575 -40.332 41.575 -35.204 Q41.575 -30.076 38.031 -26.522 Q34.488 -22.969 29.512 -22.969 Z M20.696 -67.345 Q17.141 -70.924 17.141 -76.052 Q17.141 -81.18 20.703 -84.734 Q24.265 -88.288 29.365 -88.288 Q34.466 -88.288 38.02 -84.708 Q41.575 -81.128 41.575 -76 Q41.575 -70.873 38.013 -67.319 Q34.451 -63.765 29.351 -63.765 Q24.25 -63.765 20.696 -67.345 Z"/></g><g id="Medium-L" transform="matrix(1 0 0 1 1674.31 1556)"><path d="M60.985 10.899 V-0.089 H136.453 V10.899 H60.985 Z M60.985 -29.736 V-40.724 H136.453 V-29.736 H60.985 Z M60.985 -70.532 V-81.52 H136.453 V-70.532 H60.985 Z M30.068 16.826 Q25.297 16.826 21.903 13.579 Q18.508 10.33 18.508 5.476 Q18.508 0.659 21.836 -2.678 Q25.163 -6.016 30.007 -6.016 Q34.849 -6.016 38.081 -2.611 Q41.312 0.795 41.312 5.578 Q41.312 10.226 38.008 13.526 Q34.706 16.826 30.068 16.826 Z M30.068 -23.809 Q25.297 -23.809 21.903 -27.138 Q18.508 -30.467 18.508 -35.241 Q18.508 -40.014 21.912 -43.333 Q25.316 -46.651 30.088 -46.651 Q34.725 -46.651 38.018 -43.322 Q41.312 -39.993 41.312 -35.219 Q41.312 -30.446 38.008 -27.127 Q34.706 -23.809 30.068 -23.809 Z M21.827 -67.935 Q18.508 -71.263 18.508 -76.038 Q18.508 -80.811 21.83 -84.129 Q25.15 -87.448 29.913 -87.448 Q34.675 -87.448 37.994 -84.118 Q41.312 -80.79 41.312 -76.015 Q41.312 -71.242 37.99 -67.923 Q34.67 -64.605 29.907 -64.605 Q25.144 -64.605 21.827 -67.935 Z"/></g><g id="Regular-L" transform="matrix(1 0 0 1 1378.56 1556)"><path d="M60.791 10.243 V0.568 H135.45 V10.243 H60.791 Z M60.791 -30.392 V-40.067 H135.45 V-30.392 H60.791 Z M60.791 -71.189 V-80.864 H135.45 V-71.189 H60.791 Z M30.476 16.209 Q25.953 16.209 22.733 13.145 Q19.511 10.081 19.511 5.486 Q19.511 0.89 22.656 -2.254 Q25.8 -5.399 30.396 -5.399 Q34.991 -5.399 38.055 -2.177 Q41.119 1.043 41.119 5.566 Q41.119 9.957 37.992 13.082 Q34.867 16.209 30.476 16.209 Z M30.476 -24.426 Q25.953 -24.426 22.733 -27.571 Q19.511 -30.715 19.511 -35.23 Q19.511 -39.745 22.733 -42.889 Q25.953 -46.034 30.476 -46.034 Q34.867 -46.034 37.992 -42.889 Q41.119 -39.745 41.119 -35.23 Q41.119 -30.715 37.992 -27.571 Q34.867 -24.426 30.476 -24.426 Z M22.656 -68.367 Q19.511 -71.511 19.511 -76.026 Q19.511 -80.541 22.656 -83.686 Q25.8 -86.83 30.315 -86.83 Q34.83 -86.83 37.974 -83.686 Q41.119 -80.541 41.119 -76.026 Q41.119 -71.511 37.974 -68.367 Q34.83 -65.222 30.315 -65.222 Q25.8 -65.222 22.656 -68.367 Z"/></g><g id="Light-L" transform="matrix(1 0 0 1 1082.77 1556)"><path d="M62.031 8.567 V1.25 H132.225 V8.567 H62.031 Z M62.031 -31.571 V-38.889 H132.225 V-31.571 H62.031 Z M62.031 -71.81 V-79.127 H132.225 V-71.81 H62.031 Z M32.032 14.1 Q28.151 14.1 25.413 11.457 Q22.675 8.814 22.675 4.928 Q22.675 1.042 25.368 -1.651 Q28.061 -4.344 31.947 -4.344 Q35.833 -4.344 38.476 -1.576 Q41.119 1.195 41.119 5.039 Q41.119 8.751 38.45 11.426 Q35.78 14.1 32.032 14.1 Z M32.032 -26.039 Q28.151 -26.039 25.413 -28.719 Q22.675 -31.397 22.675 -35.23 Q22.675 -39.063 25.426 -41.741 Q28.177 -44.421 32.039 -44.421 Q35.77 -44.421 38.444 -41.741 Q41.119 -39.063 41.119 -35.23 Q41.119 -31.397 38.45 -28.719 Q35.78 -26.039 32.032 -26.039 Z M25.353 -68.955 Q22.675 -71.635 22.675 -75.468 Q22.675 -79.301 25.353 -81.98 Q28.033 -84.66 31.897 -84.66 Q35.76 -84.66 38.439 -81.98 Q41.119 -79.301 41.119 -75.468 Q41.119 -71.635 38.439 -68.955 Q35.76 -66.277 31.897 -66.277 Q28.033 -66.277 25.353 -68.955 Z"/></g><g id="Thin-L" transform="matrix(1 0 0 1 787.282 1556)"><path d="M63.271 6.893 V1.932 H129 V6.893 H63.271 Z M63.271 -32.75 V-37.71 H129 V-32.75 H63.271 Z M63.271 -72.429 V-77.39 H129 V-72.429 H63.271 Z M33.588 11.992 Q30.349 11.992 28.093 9.768 Q25.837 7.546 25.837 4.37 Q25.837 1.192 28.078 -1.048 Q30.32 -3.29 33.496 -3.29 Q36.673 -3.29 38.897 -0.972 Q41.119 1.345 41.119 4.512 Q41.119 7.545 38.906 9.768 Q36.694 11.992 33.588 11.992 Z M33.588 -27.651 Q30.349 -27.651 28.093 -29.865 Q25.837 -32.079 25.837 -35.23 Q25.837 -38.381 28.119 -40.595 Q30.399 -42.809 33.603 -42.809 Q36.673 -42.809 38.895 -40.595 Q41.119 -38.381 41.119 -35.23 Q41.119 -32.079 38.906 -29.865 Q36.694 -27.651 33.588 -27.651 Z M28.051 -69.546 Q25.837 -71.76 25.837 -74.91 Q25.837 -78.061 28.051 -80.275 Q30.265 -82.489 33.479 -82.489 Q36.691 -82.489 38.905 -80.275 Q41.119 -78.061 41.119 -74.91 Q41.119 -71.76 38.905 -69.546 Q36.691 -67.332 33.479 -67.332 Q30.265 -67.332 28.051 -69.546 Z"/></g><g id="Ultralight-L" transform="matrix(1 0 0 1 491.205 1556)"><path d="M64.016 5.889 V2.341 H127.065 V5.889 H64.016 Z M64.016 -33.456 V-37.004 H127.065 V-33.456 H64.016 Z M64.016 -72.801 V-76.349 H127.065 V-72.801 H64.016 Z M34.522 10.726 Q31.668 10.726 29.701 8.756 Q27.735 6.785 27.735 4.034 Q27.735 1.283 29.705 -0.687 Q31.676 -2.657 34.427 -2.657 Q37.178 -2.657 39.148 -0.611 Q41.119 1.437 41.119 4.196 Q41.119 6.822 39.181 8.774 Q37.242 10.726 34.522 10.726 Z M34.522 -28.619 Q31.668 -28.619 29.701 -30.554 Q27.735 -32.489 27.735 -35.23 Q27.735 -37.971 29.735 -39.906 Q31.732 -41.841 34.54 -41.841 Q37.215 -41.841 39.166 -39.906 Q41.119 -37.971 41.119 -35.23 Q41.119 -32.489 39.181 -30.554 Q37.242 -28.619 34.522 -28.619 Z M29.67 -69.899 Q27.735 -71.834 27.735 -74.575 Q27.735 -77.316 29.67 -79.251 Q31.605 -81.186 34.427 -81.186 Q37.249 -81.186 39.184 -79.251 Q41.119 -77.316 41.119 -74.575 Q41.119 -71.834 39.184 -69.899 Q37.249 -67.964 34.427 -67.964 Q31.605 -67.964 29.67 -69.899 Z"/></g><g id="Bold-M" transform="matrix(1 0 0 1 2281.8 1126)"><path d="M45.875 2.645 V-13.105 H109.25 V2.645 H45.875 Z M45.875 -27.355 V-43.105 H109.25 V-27.355 H45.875 Z M45.875 -57.355 V-73.105 H109.25 V-57.355 H45.875 Z M23.22 7.395 Q18 7.395 14.312 3.678 Q10.625 -0.04 10.625 -5.26 Q10.625 -10.48 14.342 -14.167 Q18.06 -17.855 23.28 -17.855 Q28.5 -17.855 32.188 -14.137 Q35.875 -10.42 35.875 -5.2 Q35.875 0.02 32.157 3.708 Q28.44 7.395 23.22 7.395 Z M23.22 -22.605 Q18 -22.605 14.312 -26.322 Q10.625 -30.04 10.625 -35.26 Q10.625 -40.48 14.342 -44.167 Q18.06 -47.855 23.28 -47.855 Q28.5 -47.855 32.188 -44.137 Q35.875 -40.42 35.875 -35.2 Q35.875 -29.98 32.157 -26.292 Q28.44 -22.605 23.22 -22.605 Z M14.312 -56.322 Q10.625 -60.04 10.625 -65.26 Q10.625 -70.48 14.342 -74.167 Q18.06 -77.855 23.28 -77.855 Q28.5 -77.855 32.188 -74.137 Q35.875 -70.42 35.875 -65.2 Q35.875 -59.98 32.157 -56.292 Q28.44 -52.605 23.22 -52.605 Q18 -52.605 14.312 -56.322 Z"/></g><g id="Semibold-M" transform="matrix(1 0 0 1 1985.97 1126)"><path d="M45.495 1.395 V-11.855 H107.403 V1.395 H45.495 Z M45.495 -28.605 V-41.855 H107.403 V-28.605 H45.495 Z M45.495 -58.605 V-71.855 H107.403 V-58.605 H45.495 Z M23.994 6.254 Q19.25 6.254 15.889 2.875 Q12.527 -0.502 12.527 -5.247 Q12.527 -9.991 15.905 -13.352 Q19.284 -16.714 24.027 -16.714 Q28.771 -16.714 32.134 -13.335 Q35.495 -9.957 35.495 -5.212 Q35.495 -0.469 32.116 2.893 Q28.738 6.254 23.994 6.254 Z M23.994 -23.746 Q19.25 -23.746 15.889 -27.125 Q12.527 -30.502 12.527 -35.247 Q12.527 -39.991 15.905 -43.352 Q19.284 -46.714 24.027 -46.714 Q28.771 -46.714 32.134 -43.335 Q35.495 -39.957 35.495 -35.212 Q35.495 -30.469 32.116 -27.107 Q28.738 -23.746 23.994 -23.746 Z M15.889 -57.125 Q12.527 -60.502 12.527 -65.247 Q12.527 -69.991 15.905 -73.352 Q19.284 -76.714 24.027 -76.714 Q28.771 -76.714 32.134 -73.335 Q35.495 -69.957 35.495 -65.212 Q35.495 -60.469 32.116 -57.107 Q28.738 -53.746 23.994 -53.746 Q19.25 -53.746 15.889 -57.125 Z"/></g><g id="Medium-M" transform="matrix(1 0 0 1 1689.91 1126)"><path d="M45.209 0.458 V-10.917 H106.016 V0.458 H45.209 Z M45.209 -29.542 V-40.917 H106.016 V-29.542 H45.209 Z M45.209 -59.542 V-70.917 H106.016 V-59.542 H45.209 Z M24.574 5.398 Q20.188 5.398 17.071 2.274 Q13.954 -0.85 13.954 -5.237 Q13.954 -9.624 17.078 -12.741 Q20.201 -15.857 24.589 -15.857 Q28.975 -15.857 32.093 -12.734 Q35.209 -9.61 35.209 -5.222 Q35.209 -0.836 32.085 2.281 Q28.961 5.398 24.574 5.398 Z M24.574 -24.602 Q20.188 -24.602 17.071 -27.726 Q13.954 -30.85 13.954 -35.237 Q13.954 -39.624 17.078 -42.741 Q20.201 -45.857 24.589 -45.857 Q28.975 -45.857 32.093 -42.734 Q35.209 -39.61 35.209 -35.222 Q35.209 -30.836 32.085 -27.719 Q28.961 -24.602 24.574 -24.602 Z M17.071 -57.726 Q13.954 -60.85 13.954 -65.237 Q13.954 -69.624 17.078 -72.741 Q20.201 -75.857 24.589 -75.857 Q28.975 -75.857 32.093 -72.734 Q35.209 -69.61 35.209 -65.222 Q35.209 -60.836 32.085 -57.719 Q28.961 -54.602 24.574 -54.602 Q20.188 -54.602 17.071 -57.726 Z"/></g><g id="Regular-M" transform="matrix(1 0 0 1 1394.06 1126)"><path d="M45 -0.23 V-10.23 H105 V-0.23 H45 Z M45 -30.23 V-40.23 H105 V-30.23 H45 Z M45 -60.23 V-70.23 H105 V-60.23 H45 Z M25 4.77 Q20.875 4.77 17.938 1.833 Q15 -1.105 15 -5.23 Q15 -9.355 17.938 -12.292 Q20.875 -15.23 25 -15.23 Q29.125 -15.23 32.062 -12.292 Q35 -9.355 35 -5.23 Q35 -1.105 32.062 1.833 Q29.125 4.77 25 4.77 Z M25 -25.23 Q20.875 -25.23 17.938 -28.167 Q15 -31.105 15 -35.23 Q15 -39.355 17.938 -42.292 Q20.875 -45.23 25 -45.23 Q29.125 -45.23 32.062 -42.292 Q35 -39.355 35 -35.23 Q35 -31.105 32.062 -28.167 Q29.125 -25.23 25 -25.23 Z M17.938 -58.167 Q15 -61.105 15 -65.23 Q15 -69.355 17.938 -72.292 Q20.875 -75.23 25 -75.23 Q29.125 -75.23 32.062 -72.292 Q35 -69.355 35 -65.23 Q35 -61.105 32.062 -58.167 Q29.125 -55.23 25 -55.23 Q20.875 -55.23 17.938 -58.167 Z"/></g><g id="Light-M" transform="matrix(1 0 0 1 1098.18 1126)"><path d="M46.539 -1.48 V-8.98 H102.5 V-1.48 H46.539 Z M46.539 -31.48 V-38.98 H102.5 V-31.48 H46.539 Z M46.539 -61.48 V-68.98 H102.5 V-61.48 H46.539 Z M25.817 3.088 Q22.386 3.088 19.944 0.644 Q17.5 -1.799 17.5 -5.23 Q17.5 -8.661 19.944 -11.104 Q22.386 -13.547 25.817 -13.547 Q29.249 -13.547 31.691 -11.104 Q34.135 -8.661 34.135 -5.23 Q34.135 -1.799 31.691 0.644 Q29.249 3.088 25.817 3.088 Z M25.817 -26.912 Q22.386 -26.912 19.944 -29.345 Q17.5 -31.779 17.5 -35.23 Q17.5 -38.681 19.944 -41.115 Q22.386 -43.547 25.817 -43.547 Q29.249 -43.547 31.691 -41.115 Q34.135 -38.681 34.135 -35.23 Q34.135 -31.779 31.691 -29.345 Q29.249 -26.912 25.817 -26.912 Z M19.933 -59.345 Q17.5 -61.779 17.5 -65.23 Q17.5 -68.681 19.933 -71.115 Q22.365 -73.547 25.817 -73.547 Q29.269 -73.547 31.703 -71.115 Q34.135 -68.681 34.135 -65.23 Q34.135 -61.779 31.703 -59.345 Q29.269 -56.912 25.817 -56.912 Q22.365 -56.912 19.933 -59.345 Z"/></g><g id="Thin-M" transform="matrix(1 0 0 1 802.565 1126)"><path d="M48.078 -2.73 V-7.73 H100 V-2.73 H48.078 Z M48.078 -32.73 V-37.73 H100 V-32.73 H48.078 Z M48.078 -62.73 V-67.73 H100 V-62.73 H48.078 Z M26.635 1.405 Q23.898 1.405 21.949 -0.544 Q20 -2.494 20 -5.23 Q20 -7.966 21.949 -9.916 Q23.898 -11.865 26.635 -11.865 Q29.371 -11.865 31.32 -9.916 Q33.269 -7.966 33.269 -5.23 Q33.269 -2.494 31.32 -0.544 Q29.371 1.405 26.635 1.405 Z M26.635 -28.595 Q23.898 -28.595 21.949 -30.524 Q20 -32.451 20 -35.23 Q20 -38.009 21.949 -39.936 Q23.898 -41.865 26.635 -41.865 Q29.371 -41.865 31.32 -39.936 Q33.269 -38.009 33.269 -35.23 Q33.269 -32.451 31.32 -30.524 Q29.371 -28.595 26.635 -28.595 Z M21.927 -60.524 Q20 -62.451 20 -65.23 Q20 -68.009 21.927 -69.936 Q23.856 -71.865 26.635 -71.865 Q29.414 -71.865 31.341 -69.936 Q33.269 -68.009 33.269 -65.23 Q33.269 -62.451 31.341 -60.524 Q29.414 -58.595 26.635 -58.595 Q23.856 -58.595 21.927 -60.524 Z"/></g><g id="Ultralight-M" transform="matrix(1 0 0 1 506.415 1126)"><path d="M49 -3.48 V-6.98 H98.5 V-3.48 H49 Z M49 -33.48 V-36.98 H98.5 V-33.48 H49 Z M49 -63.48 V-66.98 H98.5 V-63.48 H49 Z M27.125 0.395 Q24.805 0.395 23.152 -1.257 Q21.5 -2.91 21.5 -5.23 Q21.5 -7.55 23.152 -9.202 Q24.805 -10.855 27.125 -10.855 Q29.445 -10.855 31.098 -9.202 Q32.75 -7.55 32.75 -5.23 Q32.75 -2.91 31.098 -1.257 Q29.445 0.395 27.125 0.395 Z M27.125 -29.605 Q24.805 -29.605 23.152 -31.23 Q21.5 -32.855 21.5 -35.23 Q21.5 -37.605 23.152 -39.23 Q24.805 -40.855 27.125 -40.855 Q29.445 -40.855 31.098 -39.23 Q32.75 -37.605 32.75 -35.23 Q32.75 -32.855 31.098 -31.23 Q29.445 -29.605 27.125 -29.605 Z M23.125 -61.23 Q21.5 -62.855 21.5 -65.23 Q21.5 -67.605 23.125 -69.23 Q24.75 -70.855 27.125 -70.855 Q29.5 -70.855 31.125 -69.23 Q32.75 -67.605 32.75 -65.23 Q32.75 -62.855 31.125 -61.23 Q29.5 -59.605 27.125 -59.605 Q24.75 -59.605 23.125 -61.23 Z"/></g><g id="Bold-S" transform="matrix(1 0 0 1 2294.23 696)"><path d="M36.195 -9.292 V-20.929 H83.831 V-9.292 H36.195 Z M36.195 -29.411 V-41.049 H83.831 V-29.411 H36.195 Z M36.195 -49.531 V-61.168 H83.831 V-49.531 H36.195 Z M19.878 -5.938 Q16.076 -5.938 13.413 -8.646 Q10.75 -11.353 10.75 -15.155 Q10.75 -18.957 13.457 -21.62 Q16.165 -24.283 19.967 -24.283 Q23.769 -24.283 26.431 -21.575 Q29.094 -18.868 29.094 -15.066 Q29.094 -11.264 26.387 -8.601 Q23.68 -5.938 19.878 -5.938 Z M19.878 -26.058 Q16.076 -26.058 13.413 -28.765 Q10.75 -31.472 10.75 -35.274 Q10.75 -39.076 13.457 -41.739 Q16.165 -44.402 19.967 -44.402 Q23.769 -44.402 26.431 -41.695 Q29.094 -38.988 29.094 -35.186 Q29.094 -31.384 26.387 -28.721 Q23.68 -26.058 19.878 -26.058 Z M13.413 -48.885 Q10.75 -51.592 10.75 -55.394 Q10.75 -59.196 13.457 -61.859 Q16.165 -64.522 19.967 -64.522 Q23.769 -64.522 26.431 -61.814 Q29.094 -59.107 29.094 -55.305 Q29.094 -51.503 26.387 -48.84 Q23.68 -46.177 19.878 -46.177 Q16.076 -46.177 13.413 -48.885 Z"/></g><g id="Semibold-S" transform="matrix(1 0 0 1 1998.1 696)"><path d="M35.896 -10.278 V-19.943 H82.374 V-10.278 H35.896 Z M35.896 -30.397 V-40.063 H82.374 V-30.397 H35.896 Z M35.896 -50.517 V-60.182 H82.374 V-50.517 H35.896 Z M20.488 -6.839 Q17.062 -6.839 14.657 -9.279 Q12.251 -11.719 12.251 -15.145 Q12.251 -18.571 14.691 -20.977 Q17.13 -23.382 20.556 -23.382 Q23.983 -23.382 26.389 -20.942 Q28.795 -18.502 28.795 -15.076 Q28.795 -11.65 26.355 -9.244 Q23.915 -6.839 20.488 -6.839 Z M20.488 -26.958 Q17.062 -26.958 14.657 -29.398 Q12.251 -31.838 12.251 -35.265 Q12.251 -38.691 14.691 -41.096 Q17.13 -43.502 20.556 -43.502 Q23.983 -43.502 26.389 -41.062 Q28.795 -38.622 28.795 -35.195 Q28.795 -31.769 26.355 -29.364 Q23.915 -26.958 20.488 -26.958 Z M14.657 -49.518 Q12.251 -51.958 12.251 -55.384 Q12.251 -58.81 14.691 -61.216 Q17.13 -63.621 20.556 -63.621 Q23.983 -63.621 26.389 -61.181 Q28.795 -58.741 28.795 -55.315 Q28.795 -51.889 26.355 -49.483 Q23.915 -47.078 20.488 -47.078 Q17.062 -47.078 14.657 -49.518 Z"/></g><g id="Medium-S" transform="matrix(1 0 0 1 1701.85 696)"><path d="M35.67 -11.018 V-19.203 H81.28 V-11.018 H35.67 Z M35.67 -31.137 V-39.323 H81.28 V-31.137 H35.67 Z M35.67 -51.257 V-59.442 H81.28 V-51.257 H35.67 Z M20.946 -7.514 Q17.802 -7.514 15.59 -9.753 Q13.377 -11.993 13.377 -15.137 Q13.377 -18.281 15.615 -20.494 Q17.855 -22.707 20.999 -22.707 Q24.143 -22.707 26.357 -20.468 Q28.569 -18.228 28.569 -15.084 Q28.569 -11.94 26.33 -9.727 Q24.091 -7.514 20.946 -7.514 Z M20.946 -27.634 Q17.802 -27.634 15.59 -29.873 Q13.377 -32.112 13.377 -35.257 Q13.377 -38.401 15.615 -40.614 Q17.855 -42.826 20.999 -42.826 Q24.143 -42.826 26.357 -40.587 Q28.569 -38.348 28.569 -35.203 Q28.569 -32.059 26.33 -29.846 Q24.091 -27.634 20.946 -27.634 Z M15.59 -49.992 Q13.377 -52.232 13.377 -55.376 Q13.377 -58.52 15.615 -60.733 Q17.855 -62.946 20.999 -62.946 Q24.143 -62.946 26.357 -60.707 Q28.569 -58.467 28.569 -55.323 Q28.569 -52.179 26.33 -49.966 Q24.091 -47.753 20.946 -47.753 Q17.802 -47.753 15.59 -49.992 Z"/></g><g id="Regular-S" transform="matrix(1 0 0 1 1405.73 696)"><path d="M35.505 -11.56 V-18.661 H80.478 V-11.56 H35.505 Z M35.505 -31.679 V-38.78 H80.478 V-31.679 H35.505 Z M35.505 -51.799 V-58.9 H80.478 V-51.799 H35.505 Z M21.282 -8.009 Q18.344 -8.009 16.273 -10.101 Q14.202 -12.193 14.202 -15.131 Q14.202 -18.069 16.294 -20.14 Q18.386 -22.211 21.324 -22.211 Q24.262 -22.211 26.333 -20.12 Q28.404 -18.028 28.404 -15.09 Q28.404 -12.152 26.312 -10.081 Q24.22 -8.009 21.282 -8.009 Z M21.282 -28.129 Q18.344 -28.129 16.273 -30.221 Q14.202 -32.313 14.202 -35.251 Q14.202 -38.189 16.294 -40.26 Q18.386 -42.331 21.324 -42.331 Q24.262 -42.331 26.333 -40.239 Q28.404 -38.147 28.404 -35.209 Q28.404 -32.271 26.312 -30.2 Q24.22 -28.129 21.282 -28.129 Z M16.273 -50.34 Q14.202 -52.432 14.202 -55.37 Q14.202 -58.308 16.294 -60.379 Q18.386 -62.45 21.324 -62.45 Q24.262 -62.45 26.333 -60.359 Q28.404 -58.267 28.404 -55.329 Q28.404 -52.391 26.312 -50.32 Q24.22 -48.248 21.282 -48.248 Q18.344 -48.248 16.273 -50.34 Z"/></g><g id="Light-S" transform="matrix(1 0 0 1 1109.75 696)"><path d="M36.719 -12.546 V-17.675 H78.505 V-12.546 H36.719 Z M36.719 -32.666 V-37.794 H78.505 V-32.666 H36.719 Z M36.719 -52.785 V-57.914 H78.505 V-52.785 H36.719 Z M21.927 -9.337 Q19.537 -9.337 17.856 -11.039 Q16.175 -12.742 16.175 -15.131 Q16.175 -17.522 17.877 -19.202 Q19.579 -20.884 21.969 -20.884 Q24.359 -20.884 26.04 -19.182 Q27.722 -17.479 27.722 -15.09 Q27.722 -12.699 26.019 -11.019 Q24.317 -9.337 21.927 -9.337 Z M21.927 -29.456 Q19.537 -29.456 17.856 -31.151 Q16.175 -32.844 16.175 -35.251 Q16.175 -37.657 17.877 -39.331 Q19.579 -41.004 21.969 -41.004 Q24.359 -41.004 26.04 -39.309 Q27.722 -37.616 27.722 -35.209 Q27.722 -32.803 26.019 -31.129 Q24.317 -29.456 21.927 -29.456 Z M17.847 -51.27 Q16.175 -52.964 16.175 -55.37 Q16.175 -57.777 17.869 -59.45 Q19.562 -61.123 21.969 -61.123 Q24.375 -61.123 26.049 -59.429 Q27.722 -57.735 27.722 -55.329 Q27.722 -52.922 26.027 -51.249 Q24.334 -49.576 21.927 -49.576 Q19.52 -49.576 17.847 -51.27 Z"/></g><g id="Thin-S" transform="matrix(1 0 0 1 814.015 696)"><path d="M37.933 -13.532 V-16.688 H76.533 V-13.532 H37.933 Z M37.933 -33.652 V-36.808 H76.533 V-33.652 H37.933 Z M37.933 -53.771 V-56.927 H76.533 V-53.771 H37.933 Z M22.571 -10.664 Q20.729 -10.664 19.438 -11.977 Q18.147 -13.289 18.147 -15.131 Q18.147 -16.974 19.459 -18.266 Q20.771 -19.557 22.614 -19.557 Q24.456 -19.557 25.747 -18.244 Q27.038 -16.932 27.038 -15.09 Q27.038 -13.247 25.726 -11.955 Q24.415 -10.664 22.571 -10.664 Z M22.571 -30.784 Q20.729 -30.784 19.438 -32.08 Q18.147 -33.375 18.147 -35.251 Q18.147 -37.127 19.459 -38.401 Q20.771 -39.676 22.614 -39.676 Q24.456 -39.676 25.747 -38.38 Q27.038 -37.085 27.038 -35.209 Q27.038 -33.333 25.726 -32.059 Q24.415 -30.784 22.571 -30.784 Z M19.421 -52.199 Q18.147 -53.494 18.147 -55.37 Q18.147 -57.246 19.443 -58.52 Q20.738 -59.796 22.614 -59.796 Q24.49 -59.796 25.764 -58.5 Q27.038 -57.205 27.038 -55.329 Q27.038 -53.453 25.743 -52.179 Q24.447 -50.903 22.571 -50.903 Q20.696 -50.903 19.421 -52.199 Z"/></g><g id="Ultralight-S" transform="matrix(1 0 0 1 517.792 696)"><path d="M38.661 -14.124 V-16.097 H75.35 V-14.124 H38.661 Z M38.661 -34.244 V-36.216 H75.35 V-34.244 H38.661 Z M38.661 -54.363 V-56.336 H75.35 V-54.363 H38.661 Z M22.959 -11.461 Q21.445 -11.461 20.388 -12.539 Q19.331 -13.617 19.331 -15.131 Q19.331 -16.645 20.408 -17.702 Q21.486 -18.76 23 -18.76 Q24.514 -18.76 25.571 -17.682 Q26.629 -16.604 26.629 -15.09 Q26.629 -13.576 25.551 -12.519 Q24.473 -11.461 22.959 -11.461 Z M22.959 -31.581 Q21.445 -31.581 20.388 -32.637 Q19.331 -33.693 19.331 -35.251 Q19.331 -36.808 20.408 -37.844 Q21.486 -38.879 23 -38.879 Q24.514 -38.879 25.571 -37.823 Q26.629 -36.767 26.629 -35.209 Q26.629 -33.652 25.551 -32.616 Q24.473 -31.581 22.959 -31.581 Z M20.366 -52.757 Q19.331 -53.813 19.331 -55.37 Q19.331 -56.927 20.387 -57.963 Q21.443 -58.999 23 -58.999 Q24.558 -58.999 25.593 -57.942 Q26.629 -56.886 26.629 -55.329 Q26.629 -53.771 25.572 -52.736 Q24.516 -51.7 22.959 -51.7 Q21.402 -51.7 20.366 -52.757 Z"/></g></g></svg>